<svg xmlns="http://www.w3.org/2000/svg" width="30" height="30" viewBox="0 0 30 30"><g data-name="Grupo 10145"><g data-name="Grupo 9911"><g data-name="Grupo 9909"><g data-name="Grupo 9908"><path data-name="Caminho 7686" d="M15 0a15 15 0 1015 15A15 15 0 0015 0zm-2.778 24.48l-1.282-1.349.3-2.579a.876.876 0 00-.1-.522L8.19 14.6l1.41-1.3h3.61l4.058 5.46zm8.132 2.635l-.269-1.16 1.6-2.384L24 24.714a13.309 13.309 0 01-3.646 2.401zm4.08-9.242l-1.657-2.311 1.549-4.432a.879.879 0 00-.341-1.02L17.247 5.6a.882.882 0 00-.7-.123l-5.37 1.332-1.336-.617 1.872-4.023a13.252 13.252 0 0116.306 15.267z" fill="#8cc14e"/></g></g></g></g><path data-name="Retângulo 6236" fill="none" d="M0 0h30v30H0z"/></svg>