<svg xmlns="http://www.w3.org/2000/svg" width="30" height="30" viewBox="0 0 30 30"><path data-name="Retângulo 6235" fill="none" d="M0 0h30v30H0z"/><g data-name="Grupo 10146" transform="translate(-12 -12)" fill="#fecb2f"><circle data-name="Elipse 1003" cx="9.545" cy="9.545" r="9.545" transform="translate(17.455 17.455)"/><path data-name="Caminho 3583" d="M28.022 15.224a.955.955 0 01-1.023.867.955.955 0 01-1.022-.867v-2.357A.955.955 0 0127 12a.955.955 0 011.023.867z"/><path data-name="Caminho 3584" d="M28.022 41.133a.955.955 0 01-1.023.867.955.955 0 01-1.022-.867v-2.357A.955.955 0 0127 37.909a.955.955 0 011.023.867z"/><path data-name="Caminho 3585" d="M36.05 19.396a.954.954 0 01-1.336-.11.954.954 0 01-.11-1.336l1.667-1.667a.955.955 0 011.336.11.955.955 0 01.11 1.336z"/><path data-name="Caminho 3586" d="M17.73 37.716a.955.955 0 01-1.336-.11.955.955 0 01-.11-1.336l1.667-1.667a.954.954 0 011.336.11.954.954 0 01.11 1.336z"/><path data-name="Caminho 3587" d="M38.776 28.022A.955.955 0 0137.909 27a.954.954 0 01.867-1.023h2.357A.955.955 0 0142 27a.955.955 0 01-.867 1.023z"/><path data-name="Caminho 3588" d="M12.867 28.023A.955.955 0 0112 27a.955.955 0 01.867-1.023h2.357A.954.954 0 0116.091 27a.955.955 0 01-.867 1.023z"/><path data-name="Caminho 3589" d="M34.604 36.05a.954.954 0 01.11-1.336.955.955 0 011.336-.11l1.667 1.667a.955.955 0 01-.11 1.336.955.955 0 01-1.336.11z"/><path data-name="Caminho 3590" d="M16.283 17.73a.955.955 0 01.11-1.337.955.955 0 011.336-.11l1.667 1.666a.955.955 0 01-.11 1.336.955.955 0 01-1.336.11z"/></g></svg>